<?xml version="1.0" standalone="no"?>
<!DOCTYPE svg PUBLIC "-//W3C//DTD SVG 20010904//EN"
 "http://www.w3.org/TR/2001/REC-SVG-20010904/DTD/svg10.dtd">
<svg version="1.0" xmlns="http://www.w3.org/2000/svg"
 width="500.000000pt" height="500.000000pt" viewBox="0 0 500.000000 500.000000"
 preserveAspectRatio="xMidYMid meet">

<g transform="translate(0.000000,500.000000) scale(0.100000,-0.100000)"
fill="#000000" stroke="none">
<path d="M0 2500 l0 -2500 2500 0 2500 0 0 2500 0 2500 -2500 0 -2500 0 0
-2500z m2646 964 c20 -10 45 -34 59 -59 l25 -42 0 -315 0 -316 34 -6 c45 -9
83 1 123 31 57 42 58 46 63 338 5 249 7 273 26 305 11 19 35 45 54 57 31 21
44 23 190 23 146 0 159 -2 190 -22 74 -51 75 -55 75 -296 0 -250 14 -205 -136
-443 -53 -86 -100 -172 -104 -191 -9 -47 4 -76 120 -259 54 -85 104 -174 112
-198 9 -30 13 -102 13 -225 0 -205 -10 -243 -71 -287 -31 -22 -45 -24 -178
-27 -175 -4 -217 7 -259 71 l-27 40 -5 276 c-5 265 -6 277 -27 307 -31 43 -82
66 -141 62 l-47 -3 -6 -145 c-4 -90 -13 -166 -24 -200 -45 -146 -155 -278
-288 -344 -120 -59 -171 -66 -517 -66 -347 0 -366 4 -411 76 -21 35 -24 51
-24 144 0 116 13 153 68 194 27 20 45 21 295 27 147 3 268 6 269 7 34 26 78
72 86 91 9 18 13 215 17 673 5 634 5 647 26 675 39 54 74 63 237 63 117 0 156
-4 183 -16z"/>
</g>
</svg>
